<svg id="Слой_1" data-name="Слой 1" xmlns="http://www.w3.org/2000/svg" viewBox="0 0 64 64"><defs><style>.cls-1,.cls-2{fill:#fff;}.cls-1{stroke:#fff;stroke-width:2.5px;}.cls-1,.cls-2,.cls-3,.cls-4{stroke-linecap:round;stroke-linejoin:round;}.cls-2,.cls-3{stroke:#1d1d1b;}.cls-2,.cls-3,.cls-4{stroke-width:2px;}.cls-3{fill:#38cb2b;}.cls-4{fill:none;stroke:#000;}</style></defs><path class="cls-1" d="M56.72,13.89H6.22a2,2,0,0,0-2,2V42.3a2,2,0,0,0,2,2H23.86v1.27a1.22,1.22,0,0,0,1.83,1l2.94-1.69,2.19,3.25,3-2L32.56,44.3H56.72a2,2,0,0,0,2-2V15.88A2,2,0,0,0,56.72,13.89Z"/><rect class="cls-2" x="4.22" y="13.84" width="54.5" height="30.5" rx="2"/><rect class="cls-3" x="12.22" y="20.34" width="16" height="16" rx="2"/><rect class="cls-2" x="35.22" y="20.34" width="16" height="16" rx="2"/><path class="cls-4" d="M25.22,23.34l-5,9.14a.38.38,0,0,1-.68,0L16.05,26"/><line class="cls-4" x1="38.72" y1="23.78" x2="47.22" y2="32.28"/><line class="cls-4" x1="38.72" y1="32.28" x2="47.22" y2="23.78"/><path class="cls-2" d="M35.27,39,25.69,33.5a1.22,1.22,0,0,0-1.83,1.06v11a1.22,1.22,0,0,0,1.83,1.06L28.63,45l2.19,3.25,3-2-2.05-3,3.5-2A1.22,1.22,0,0,0,35.27,39Z"/></svg>