<svg id="Слой_1" data-name="Слой 1" xmlns="http://www.w3.org/2000/svg" viewBox="0 0 64 64"><defs><style>.cls-1,.cls-5{fill:none;}.cls-1{stroke:#fff;stroke-width:2.5px;}.cls-1,.cls-2,.cls-5{stroke-linecap:round;stroke-linejoin:round;}.cls-2{fill:#fff;}.cls-2,.cls-5{stroke:#1d1d1b;stroke-width:2px;}.cls-3{fill:#38cb2b;}.cls-4{fill:#1d1d1b;}</style></defs><path class="cls-1" d="M51,6.32H15a2,2,0,0,0-2,2v30l-2.61,3.6L13,43.81V53a2,2,0,0,0,2,2H51a2,2,0,0,0,2-2V8.31A2,2,0,0,0,51,6.32Z"/><rect class="cls-2" x="13.04" y="6.32" width="39.96" height="48.68" rx="2"/><rect class="cls-3" x="9.42" y="33.95" width="16.63" height="6" transform="translate(-22.6 29.66) rotate(-54.11)"/><polygon class="cls-4" points="23.39 26.68 25.8 28.64 26.68 24.47 23.39 26.68"/><polygon class="cls-5" points="27.14 23.95 20.18 28.46 10.43 41.93 15.29 45.45 25.04 31.98 27.14 23.95"/><line class="cls-2" x1="20" y1="13" x2="47" y2="13"/><line class="cls-2" x1="20" y1="18" x2="47" y2="18"/><line class="cls-2" x1="30" y1="23" x2="47" y2="23"/><line class="cls-5" x1="20.18" y1="28.46" x2="25.04" y2="31.98"/></svg>