<?xml version="1.0" standalone="no"?>
<!DOCTYPE svg PUBLIC "-//W3C//DTD SVG 20010904//EN"
 "http://www.w3.org/TR/2001/REC-SVG-20010904/DTD/svg10.dtd">
<svg version="1.0" xmlns="http://www.w3.org/2000/svg"
 width="512.000000pt" height="512.000000pt" viewBox="0 0 512.000000 512.000000"
 preserveAspectRatio="xMidYMid meet">

<g transform="translate(0.000000,512.000000) scale(0.100000,-0.100000)"
fill="#000000" stroke="none">
<path d="M1795 5034 c-220 -31 -393 -82 -550 -162 -164 -83 -429 -255 -439
-284 -16 -45 0 -75 63 -117 71 -49 106 -89 139 -161 22 -48 27 -75 33 -215 9
-167 22 -295 42 -405 l13 -65 -41 -40 c-66 -65 -90 -125 -90 -225 0 -70 5 -94
25 -135 50 -102 151 -172 262 -183 52 -4 58 -7 58 -27 0 -42 39 -174 73 -247
18 -40 57 -104 86 -142 49 -65 53 -73 47 -110 -10 -61 -52 -140 -96 -180 -70
-63 -153 -96 -469 -183 -167 -46 -336 -99 -375 -117 -187 -87 -333 -257 -395
-458 -21 -71 -34 -171 -77 -605 -25 -255 -26 -274 -10 -297 9 -14 27 -28 41
-32 l25 -6 0 -255 0 -254 25 -24 24 -25 2391 0 2391 0 24 25 25 24 0 911 0
911 -25 24 -24 25 -666 0 -667 0 -72 35 c-44 21 -192 68 -377 118 -318 88
-398 119 -471 185 -45 41 -84 115 -94 178 -6 39 -3 47 45 108 28 37 66 100 86
140 34 72 75 208 75 251 0 20 7 23 60 28 267 28 383 358 191 545 l-40 39 18
129 c25 171 45 464 39 574 -6 105 -42 192 -107 263 -47 51 -135 101 -206 117
-32 7 -66 25 -95 49 -144 121 -311 205 -500 251 -83 21 -337 35 -415 24z m405
-187 c165 -43 302 -117 428 -230 48 -43 70 -57 94 -57 95 0 202 -81 228 -173
27 -100 -20 -707 -55 -707 -10 0 -14 33 -17 133 -3 120 -6 137 -30 183 -50 95
-158 164 -257 164 -20 0 -92 -14 -161 -30 -261 -63 -445 -63 -700 0 -146 37
-209 36 -286 -3 -58 -30 -103 -75 -135 -137 -20 -39 -24 -63 -27 -178 -4 -117
-6 -133 -20 -130 -23 4 -48 179 -57 383 -4 83 -11 175 -17 205 -14 77 -57 165
-111 232 l-47 56 106 67 c301 189 531 258 834 250 103 -2 157 -9 230 -28z
m-488 -877 c279 -67 456 -67 744 2 148 35 167 34 222 -17 37 -33 37 -34 40
-123 l4 -90 -53 -40 c-41 -31 -57 -38 -70 -31 -10 5 -101 9 -204 9 -184 0
-186 0 -210 -25 -14 -13 -25 -31 -25 -40 0 -12 -15 -15 -80 -15 -65 0 -80 3
-80 15 0 9 -11 27 -25 40 -24 25 -26 25 -210 25 -103 0 -194 -4 -204 -9 -13
-7 -29 0 -69 30 l-52 40 0 77 c0 92 19 136 71 164 45 24 56 23 201 -12z m-192
-566 c0 -66 3 -78 25 -99 24 -25 26 -25 215 -25 189 0 191 0 215 25 21 20 25
34 25 80 l0 55 80 0 80 0 0 -55 c0 -46 4 -60 25 -80 24 -25 26 -25 215 -25
189 0 191 0 215 25 22 21 25 33 25 99 l0 74 40 32 40 32 0 -114 c0 -215 -29
-441 -69 -549 -64 -169 -220 -317 -391 -370 -333 -103 -687 100 -775 446 -22
86 -45 325 -45 466 l0 121 40 -32 40 -32 0 -74z m-238 -41 c3 -87 3 -160 2
-162 -2 -2 -20 0 -41 4 -49 9 -109 69 -118 118 -15 77 23 154 90 183 63 28 62
30 67 -143z m558 117 l0 -40 -80 0 -80 0 0 40 0 40 80 0 80 0 0 -40z m640 0
l0 -40 -80 0 -80 0 0 40 0 40 80 0 80 0 0 -40z m489 12 c49 -36 66 -70 66
-132 0 -44 -5 -66 -21 -86 -30 -41 -65 -64 -108 -71 l-39 -6 6 48 c4 26 7 99
7 163 l0 115 33 -7 c17 -3 43 -14 56 -24z m-1219 -1094 c116 -57 186 -72 330
-72 143 0 212 15 330 72 41 20 78 37 81 39 3 2 11 -14 17 -35 25 -83 112 -191
191 -238 17 -10 31 -21 31 -25 0 -11 -117 -86 -184 -118 -286 -136 -644 -136
-931 0 -70 33 -185 107 -184 117 0 4 28 27 62 52 68 50 129 129 155 202 9 27
19 47 22 46 3 -2 39 -20 80 -40z m-460 -353 c36 -38 156 -118 245 -163 330
-165 765 -163 1097 4 84 42 175 102 229 151 l38 34 123 -33 123 -33 -153 -5
c-147 -5 -155 -6 -173 -29 -18 -22 -19 -49 -19 -717 l0 -694 -455 0 -456 0
-24 -25 c-24 -23 -25 -29 -25 -160 l0 -135 -440 0 -440 0 0 255 0 256 -25 24
-24 25 -331 0 c-243 0 -330 3 -330 12 0 52 64 637 76 687 35 156 161 314 304
385 48 23 173 63 345 110 149 41 275 75 281 75 6 1 21 -10 34 -24z m3590
-1005 l0 -800 -960 0 -960 0 0 800 0 800 960 0 960 0 0 -800z m-4080 -600 l0
-200 -240 0 -240 0 0 200 0 200 240 0 240 0 0 -200z m2000 -120 l0 -80 -400 0
-400 0 0 80 0 80 400 0 400 0 0 -80z"/>
<path d="M3847 1075 c-86 -173 -157 -316 -157 -318 0 -6 140 -71 144 -66 9 9
317 631 314 634 -8 7 -128 65 -135 65 -5 0 -79 -142 -166 -315z"/>
<path d="M3407 1202 c-168 -170 -168 -154 3 -326 l130 -131 57 57 58 58 -90
90 -90 90 88 88 c48 48 87 92 87 98 0 13 -93 104 -106 104 -5 0 -67 -58 -137
-128z"/>
<path d="M4237 1282 c-26 -26 -47 -52 -47 -57 0 -5 39 -49 87 -97 l88 -88 -90
-90 -90 -90 58 -58 57 -57 130 131 c171 172 171 156 3 326 -70 70 -132 128
-138 128 -6 0 -32 -22 -58 -48z"/>
</g>
</svg>
