<svg id="Слой_1" data-name="Слой 1" xmlns="http://www.w3.org/2000/svg" viewBox="0 0 64 64"><defs><style>.cls-1,.cls-3{fill:#fff;}.cls-1,.cls-2{stroke:#fff;stroke-width:2.5px;}.cls-1,.cls-2,.cls-3,.cls-4{stroke-linecap:round;stroke-linejoin:round;}.cls-2,.cls-4{fill:#38cb2b;}.cls-3,.cls-4{stroke:#1d1d1b;stroke-width:2px;}</style></defs><path class="cls-1" d="M51.53,28l-9.06-9.49-.33,0,.06-.21-8.58.7a4.11,4.11,0,0,0-1.83.53c-2.52-.82-5.4-1.49-5.4-1.49L16.6,26.84,19.48,35a1.8,1.8,0,0,0,1.7,2.83l1,1.18a1.81,1.81,0,0,0,2.24,2.84l.15-.12.55.63-.19.15a1.81,1.81,0,1,0,2.22,2.86l.36-.28.27.31a1.8,1.8,0,0,0,2.36,2.7l.23.26c.85.93,4.37,1.19,5.24.4L47.42,38.06a2.08,2.08,0,0,0,.64-1.74C49,34.18,51.53,28,51.53,28Z"/><polygon class="cls-2" points="11 23 14 26 25 16 21 12 11 23"/><polygon class="cls-2" points="56.77 23.38 53.61 26.21 43.18 15.62 47.39 11.85 56.77 23.38"/><path class="cls-3" d="M21.21,32.66l9.44-8.83,3.64-3.6h0c2.21-1,8.18-1.7,8.18-1.7L51.53,28l-3.78,9L37.08,47.47c-.87.82-4.31.7-5.11-.15L21.08,35.68A2.14,2.14,0,0,1,21.21,32.66Z"/><path class="cls-3" d="M47.45,35l-9.21-10.1-3.55-4.09h0c-2.22-1.24-8.3-2.65-8.3-2.65L16.6,26.84,20,36.52,30.4,48.4c.85.93,4.37,1.19,5.24.4L47.42,38.06A2.2,2.2,0,0,0,47.45,35Z"/><path class="cls-3" d="M42.2,18.37l-8.58.7a3.65,3.65,0,0,0-2.83,1.4l-.35,2.38-.05.15a1.48,1.48,0,0,0-.05.51L29.8,27.2c-.33,1.69-.09,1.78.73,2.07l2.1.77a1.88,1.88,0,0,0,2.24-1l1.23-3.73,4,.17"/><rect class="cls-3" x="18.93" y="33.67" width="5.6" height="3.62" rx="1.81" transform="translate(-17.17 20.73) rotate(-37.75)"/><rect class="cls-3" x="21.24" y="37.8" width="6.39" height="3.62" rx="1.81" transform="translate(-19.14 23.25) rotate(-37.75)"/><rect class="cls-3" x="23.97" y="41.33" width="6.39" height="3.62" rx="1.81" transform="translate(-20.72 25.66) rotate(-37.75)"/><rect class="cls-3" x="27.13" y="44.25" width="5.6" height="3.62" rx="1.81" transform="translate(-21.93 27.96) rotate(-37.75)"/><line class="cls-3" x1="44.43" y1="39.59" x2="42.42" y2="37.36"/><line class="cls-3" x1="40.98" y1="42.69" x2="38.97" y2="40.46"/><line class="cls-3" x1="37.53" y1="45.79" x2="35.52" y2="43.56"/><polygon class="cls-4" points="11 23 14 26 25 16 21 12 11 23"/><polygon class="cls-4" points="56.77 23.38 53.61 26.21 43.18 15.62 47.39 11.85 56.77 23.38"/></svg>