<svg id="Слой_1" data-name="Слой 1" xmlns="http://www.w3.org/2000/svg" viewBox="0 0 64 64"><defs><style>.cls-1,.cls-4{fill:#fff;}.cls-1{stroke:#fff;stroke-width:2.5px;}.cls-1,.cls-2,.cls-4,.cls-5{stroke-linecap:round;}.cls-1,.cls-2,.cls-4{stroke-linejoin:round;}.cls-2,.cls-5{fill:none;}.cls-2,.cls-4{stroke:#1d1d1b;stroke-width:2px;}.cls-3{fill:#1d1d1b;}.cls-5{stroke:#38cb2b;stroke-miterlimit:10;}</style></defs><path class="cls-1" d="M58,12.37,16.07,11C15,14.37,15,18.37,15,21.37c0,1,0,2,.14,3h-.94c-.93,0-1.2,0-1.68,1.79l-2,7.18c-1.68.89-3.52.8-3.52,1.79V48.58a27.09,27.09,0,0,0,2.68,1.79H27.31A1.74,1.74,0,0,0,29,48.58V45.65a19.58,19.58,0,0,0,8,1.72C49,47.37,63,40.37,58,12.37ZM17.26,33.11c0,.08.07.15.1.23h-.13Z"/><path class="cls-2" d="M58,12.37c5,28-9,35-21,35s-22-11-22-26c0-3,0-7,1.08-10.33"/><rect class="cls-3" x="36.99" y="13.37" width="13" height="9" rx="2"/><path class="cls-4" d="M27.31,33.34H17.23l1-7.18a1.74,1.74,0,0,0-1.68-1.79H14.19c-.93,0-1.2,0-1.68,1.79l-2,7.18h0c-1.68.89-3.52.8-3.52,1.79V48.58a27.09,27.09,0,0,0,2.68,1.79H27.31A1.74,1.74,0,0,0,29,48.58V35.13A1.74,1.74,0,0,0,27.31,33.34Z"/><line class="cls-4" x1="27.99" y1="38.37" x2="24.99" y2="38.37"/><line class="cls-4" x1="36.99" y1="16.37" x2="33.99" y2="16.37"/><line class="cls-4" x1="27.99" y1="42.37" x2="24.99" y2="42.37"/><line class="cls-4" x1="27.99" y1="46.37" x2="24.99" y2="46.37"/><polyline class="cls-2" points="48.99 27.37 46.99 32.37 42.99 32.37"/><path class="cls-5" d="M48.49,14.87v4.29a1.65,1.65,0,0,1-1.58,1.71H39"/><rect class="cls-3" x="20.99" y="13.37" width="13" height="9" rx="2"/><path class="cls-5" d="M32.49,14.87v4.29a1.65,1.65,0,0,1-1.58,1.71H23"/></svg>