<?xml version="1.0" standalone="no"?>
<!DOCTYPE svg PUBLIC "-//W3C//DTD SVG 20010904//EN"
 "http://www.w3.org/TR/2001/REC-SVG-20010904/DTD/svg10.dtd">
<svg version="1.0" xmlns="http://www.w3.org/2000/svg"
 width="2684.000000pt" height="2905.000000pt" viewBox="0 0 2684.000000 2905.000000"
 preserveAspectRatio="xMidYMid meet">

<g transform="translate(0.000000,2905.000000) scale(0.100000,-0.100000)"
fill="#000000" stroke="none">
<path d="M3232 26209 c-55 -11 -141 -50 -189 -86 -56 -43 -120 -137 -143 -210
-20 -65 -20 -89 -20 -2719 0 -2644 0 -2655 20 -2715 55 -163 186 -273 356
-299 48 -7 1521 -10 4854 -8 4513 3 4788 4 4836 20 131 45 241 154 283 281
l21 63 -2 2679 -3 2680 -32 68 c-59 125 -184 221 -322 247 -67 12 -9595 12
-9659 -1z m9148 -3014 l0 -2145 -4315 0 -4315 0 0 2145 0 2145 4315 0 4315 0
0 -2145z"/>
<path d="M6345 24770 c-27 -4 -62 -12 -76 -18 -57 -22 -1838 -1037 -1888
-1076 -136 -104 -204 -291 -168 -462 21 -99 59 -168 131 -239 54 -53 160 -116
970 -575 500 -283 930 -524 955 -534 34 -15 70 -20 142 -20 90 -1 99 1 171 37
87 43 142 98 185 186 25 51 28 66 28 166 0 105 -2 114 -33 177 -20 42 -51 83
-81 110 -30 26 -298 185 -700 412 -358 203 -651 371 -651 375 0 3 292 170 648
371 699 394 727 413 786 525 29 57 31 66 31 175 0 110 -1 118 -32 175 -60 116
-167 194 -294 215 -35 5 -66 9 -69 9 -3 -1 -27 -5 -55 -9z"/>
<path d="M8658 24769 c-74 -10 -162 -56 -215 -111 -50 -52 -1418 -2212 -1445
-2282 -42 -108 -31 -242 28 -341 37 -64 125 -140 192 -166 45 -19 77 -23 152
-24 86 0 101 3 162 32 37 17 86 51 110 75 51 51 1422 2217 1451 2293 29 72 28
200 -2 278 -68 175 -240 273 -433 246z"/>
<path d="M9692 24769 c-119 -20 -236 -112 -290 -227 -24 -50 -27 -69 -27 -162
0 -93 3 -112 27 -162 54 -117 66 -125 753 -530 349 -205 635 -376 635 -380 0
-3 -282 -172 -627 -375 -680 -399 -709 -419 -761 -530 -24 -52 -27 -69 -27
-168 0 -101 2 -115 29 -170 83 -168 275 -257 454 -211 92 23 1810 1035 1895
1115 147 139 187 365 96 549 -65 133 -57 128 -1032 701 -488 287 -904 528
-925 535 -53 19 -138 25 -200 15z"/>
<path d="M16155 23049 c-320 -17 -641 -94 -944 -226 -736 -320 -1316 -978
-1537 -1747 -79 -272 -107 -480 -108 -771 0 -448 86 -817 284 -1220 339 -690
961 -1211 1702 -1425 824 -238 1720 -75 2403 438 748 561 1156 1433 1104 2361
-15 267 -73 551 -164 797 -48 131 -167 376 -240 494 -209 337 -544 674 -880
885 -115 73 -381 203 -509 250 -229 84 -529 149 -742 160 -60 3 -136 7 -169 9
-33 2 -123 0 -200 -5z m340 -884 c44 -3 134 -17 201 -30 693 -139 1258 -681
1433 -1373 54 -211 69 -519 37 -732 -51 -337 -191 -651 -406 -914 -83 -103
-251 -260 -361 -339 -119 -85 -359 -206 -498 -251 -555 -180 -1144 -98 -1628
224 -767 511 -1048 1520 -653 2349 95 199 198 348 344 499 331 343 752 540
1221 572 108 7 150 6 310 -5z"/>
<path d="M14281 18015 c-243 -53 -586 -187 -836 -327 -295 -165 -535 -347
-776 -589 -591 -593 -947 -1370 -1019 -2224 -5 -66 -10 -435 -10 -820 0 -598
2 -709 15 -760 43 -165 181 -295 346 -325 36 -7 1520 -9 4344 -8 4177 3 4291
3 4340 22 119 45 222 143 266 253 l24 58 3 710 c4 850 -4 993 -75 1330 -251
1203 -1123 2205 -2256 2594 -135 46 -198 55 -279 41 -93 -17 -157 -50 -249
-130 -411 -357 -863 -562 -1389 -632 -139 -18 -488 -15 -635 5 -513 73 -985
297 -1372 650 -109 98 -167 133 -260 152 -82 18 -99 17 -182 0z m118 -1022
c482 -362 1032 -583 1646 -659 171 -22 565 -24 735 -5 610 68 1188 293 1666
646 41 30 79 55 85 55 22 0 269 -132 374 -201 566 -368 983 -969 1129 -1629
56 -257 59 -288 63 -842 l5 -518 -3792 0 -3792 0 5 518 c4 545 7 586 58 817
171 774 676 1434 1364 1783 126 63 282 130 307 131 9 1 75 -43 147 -96z"/>
<path d="M21975 13079 c-223 -24 -492 -97 -663 -180 -256 -123 -566 -393
-2052 -1779 -1180 -1101 -1485 -1374 -1665 -1493 -80 -52 -297 -167 -317 -167
-4 0 1 20 12 46 129 299 158 728 70 1041 -94 338 -347 636 -689 812 -188 96
-378 159 -592 196 -84 15 -301 15 -2393 5 -1729 -9 -2573 -9 -3396 0 -1168 12
-1182 12 -1467 -36 -415 -68 -833 -208 -1268 -424 -121 -60 -268 -140 -327
-177 -64 -41 -922 -715 -2155 -1694 -2247 -1785 -2097 -1659 -2143 -1807 -20
-63 -20 -94 -20 -2122 0 -2033 0 -2059 20 -2123 41 -133 137 -236 269 -289
l56 -23 2410 -3 c1733 -2 2426 0 2468 8 32 6 78 20 101 30 24 10 587 426 1252
925 l1209 907 380 -6 c2329 -37 4493 -32 5215 14 722 46 1404 227 2030 539
264 132 520 288 703 429 44 33 914 877 1935 1874 1022 998 1900 1852 1952
1899 52 46 160 149 239 229 912 919 1201 1766 824 2418 -100 172 -309 403
-491 541 -276 209 -587 339 -950 397 -120 18 -436 26 -557 13z m440 -884 c274
-45 493 -158 673 -349 178 -188 206 -299 132 -530 -101 -314 -448 -778 -856
-1146 -77 -68 -231 -215 -344 -326 -348 -341 -3289 -3212 -3415 -3334 -325
-312 -958 -624 -1575 -775 -409 -100 -669 -125 -1525 -145 -555 -13 -2494 -13
-3460 1 -423 6 -957 11 -1185 12 l-415 2 -60 -28 c-36 -17 -527 -379 -1266
-933 l-1206 -904 -2061 0 -2062 0 1 1678 0 1677 1927 1528 c1060 840 1950
1542 1977 1559 28 17 118 66 200 109 490 253 1009 399 1421 399 82 0 1616 -1
3409 -3 l3260 -2 80 -23 c44 -12 126 -45 182 -73 221 -109 308 -261 287 -504
-16 -195 -81 -340 -209 -470 -113 -116 -255 -204 -433 -271 l-62 -24 -2258 0
-2257 0 -67 -24 c-202 -71 -325 -274 -290 -478 33 -193 179 -338 372 -368 88
-13 5378 -14 5510 0 416 43 892 216 1250 455 233 155 507 398 1720 1529 1232
1148 1559 1444 1792 1617 103 76 252 129 433 152 78 10 298 6 380 -8z"/>
</g>
</svg>
