<svg id="Слой_1" data-name="Слой 1" xmlns="http://www.w3.org/2000/svg" viewBox="0 0 64 64"><defs><style>.cls-1{fill:#1d1d1b;stroke:#fff;}.cls-1,.cls-2,.cls-3{stroke-linecap:round;stroke-linejoin:round;stroke-width:2px;}.cls-2{fill:#38cb2b;}.cls-2,.cls-3{stroke:#1d1d1b;}.cls-3{fill:#fff;}</style></defs><path class="cls-1" d="M54,10.94H51.94V8.68a2,2,0,0,0-2-2H10.66a2,2,0,0,0-2,2V50.75a2,2,0,0,0,2,2h2.06V55a2,2,0,0,0,2,2H54a2,2,0,0,0,2-2V12.94A2,2,0,0,0,54,10.94Z"/><rect class="cls-2" x="9.03" y="7.12" width="42.75" height="45.42" rx="2"/><rect class="cls-3" x="13.04" y="11.32" width="42.75" height="45.68" rx="2"/><path class="cls-2" d="M34.18,42H48.95a2,2,0,0,1,2,2v8a0,0,0,0,1,0,0H32.18a0,0,0,0,1,0,0V44A2,2,0,0,1,34.18,42Z"/><rect class="cls-2" x="36.35" y="30" width="10.43" height="9.68" rx="4.84"/></svg>