<svg id="Слой_1" data-name="Слой 1" xmlns="http://www.w3.org/2000/svg" viewBox="0 0 64 64"><defs><style>.cls-1{fill:#1d1d1b;stroke:#fff;}.cls-1,.cls-2,.cls-3,.cls-4{stroke-linecap:round;stroke-linejoin:round;stroke-width:2px;}.cls-2{fill:none;}.cls-2,.cls-3,.cls-4{stroke:#1d1d1b;}.cls-3{fill:#38cb2b;}.cls-4{fill:#fff;}</style></defs><rect class="cls-1" x="5.66" y="7.69" width="37.82" height="32.96" rx="2"/><rect class="cls-1" x="9.21" y="10.73" width="37.82" height="32.96" rx="2"/><rect class="cls-1" x="12.75" y="13.77" width="37.82" height="32.96" rx="2"/><rect class="cls-1" x="16.3" y="16.81" width="37.82" height="32.96" rx="2"/><rect class="cls-1" x="19.84" y="19.86" width="37.82" height="32.96" rx="2"/><path class="cls-2" d="M45.65,32.53l6.16,3.62a.28.28,0,0,1,0,.49l-6.16,3.62"/><path class="cls-2" d="M33.5,32.53l-6.41,3.62a.28.28,0,0,0,0,.49l6.41,3.62"/><line class="cls-2" x1="36.97" y1="40.26" x2="41.88" y2="32.53"/><rect class="cls-3" x="5.98" y="8" width="37.35" height="32.5" rx="2"/><rect class="cls-4" x="9.48" y="11" width="37.35" height="32.5" rx="2"/><rect class="cls-3" x="12.98" y="14" width="37.35" height="32.5" rx="2"/><rect class="cls-4" x="16.49" y="17" width="37.35" height="32.5" rx="2"/><rect class="cls-4" x="19.99" y="20" width="37.35" height="32.5" rx="2"/><path class="cls-2" d="M45.47,32.5l6.1,3.56a.29.29,0,0,1,0,.49l-6.1,3.57"/><path class="cls-2" d="M33.48,32.5l-6.33,3.56a.28.28,0,0,0,0,.49l6.33,3.57"/><line class="cls-2" x1="36.91" y1="40.12" x2="41.76" y2="32.5"/></svg>