<svg id="Слой_1" data-name="Слой 1" xmlns="http://www.w3.org/2000/svg" viewBox="0 0 644 697"><defs><style>.cls-1{fill:#fff;}.cls-1,.cls-2{stroke:#000;stroke-width:21px;}.cls-1,.cls-2,.cls-3{stroke-linecap:round;stroke-linejoin:round;}.cls-2{fill:#38cb2b;}.cls-3{fill:none;stroke:#1d1d1b;stroke-width:19px;}</style></defs><path class="cls-1" d="M80.28,618V522l97-77s24-16,50-15,155,0,155,0,24,2,25,22-15,29-26,32h21s17-1,31-13c21.48-18.41,71-67,81-73s36-9,51,12-25,54-25,54l-88.5,86.5s-23.5,20.5-62.5,22.5-136,0-136,0l-60,45Z"/><circle class="cls-2" cx="391.45" cy="209.91" r="55.51"/><path class="cls-2" d="M493,375.59l-.06-28.8c-.06-33.09-21.29-61.05-50.51-70.5a71,71,0,0,1-48,18.84h0a71,71,0,0,1-49.53-20c-31.69,7.9-55.19,37.18-55.13,72.08l.06,28.42Z"/><rect class="cls-1" x="79.5" y="78.5" width="228" height="124"/><path class="cls-3" d="M234.2,112.08l40.86,24.08a1.92,1.92,0,0,1,0,3.3L234.2,163.54"/><path class="cls-3" d="M153.73,112.08l-42.48,24.08a1.89,1.89,0,0,0,0,3.3l42.48,24.08"/><line class="cls-3" x1="176.72" y1="163.54" x2="209.25" y2="112.08"/></svg>