<svg id="Слой_1" data-name="Слой 1" xmlns="http://www.w3.org/2000/svg" viewBox="0 0 64 64"><defs><style>.cls-1{fill:#fff;}.cls-1,.cls-4{stroke:#1d1d1b;}.cls-1,.cls-2,.cls-4,.cls-5{stroke-linecap:round;stroke-linejoin:round;}.cls-1,.cls-2,.cls-4{stroke-width:2px;}.cls-2,.cls-4,.cls-5{fill:none;}.cls-2,.cls-5{stroke:#38cb2b;}.cls-3{fill:#1d1d1b;}.cls-6{stroke:#000;stroke-miterlimit:10;stroke-width:0.25px;}</style></defs><rect class="cls-1" x="5.25" y="6" width="54.5" height="39"/><line class="cls-1" x1="6" y1="34" x2="59" y2="34"/><path class="cls-2" d="M42,15.26l8.81,5.19a.41.41,0,0,1,0,.71L42,26.35"/><path class="cls-2" d="M24.65,15.26l-9.16,5.19a.41.41,0,0,0,0,.71l9.16,5.19"/><line class="cls-2" x1="29.6" y1="26.35" x2="36.61" y2="15.26"/><path class="cls-3" d="M12.43,40,9.56,41.7a.73.73,0,0,1-1.1-.64V37.75a.73.73,0,0,1,1.1-.63l2.87,1.66A.73.73,0,0,1,12.43,40Z"/><line class="cls-4" x1="17" y1="39.41" x2="45" y2="39.41"/><line class="cls-5" x1="17.5" y1="39.41" x2="31.5" y2="39.41"/><path class="cls-6" d="M48.49,38.36l.68-.24h.22V40.7h-.25V38.4l-.58.18Z"/><path class="cls-6" d="M51.57,40.38a.9.9,0,0,1-1.44,0,1.66,1.66,0,0,1-.26-1,1.64,1.64,0,0,1,.26-1,.9.9,0,0,1,1.44,0,2,2,0,0,1,0,1.94Zm-1.25-.17a.6.6,0,0,0,.53.28.58.58,0,0,0,.52-.28,1.41,1.41,0,0,0,.2-.8,1.39,1.39,0,0,0-.2-.8.58.58,0,0,0-.52-.28.6.6,0,0,0-.53.28,1.39,1.39,0,0,0-.19.8A1.41,1.41,0,0,0,50.32,40.21Z"/><path class="cls-6" d="M52.63,39a.17.17,0,0,1-.06.14.19.19,0,0,1-.28,0,.17.17,0,0,1-.06-.14.2.2,0,0,1,.4,0Zm0,1.51a.21.21,0,1,1-.06-.14A.18.18,0,0,1,52.63,40.53Z"/><path class="cls-6" d="M54.73,40.38a.83.83,0,0,1-.72.36.86.86,0,0,1-.72-.36,1.66,1.66,0,0,1-.25-1,1.64,1.64,0,0,1,.25-1,.86.86,0,0,1,.72-.36.83.83,0,0,1,.72.36,1.94,1.94,0,0,1,0,1.94Zm-1.25-.17a.61.61,0,0,0,.53.28.6.6,0,0,0,.53-.28,1.41,1.41,0,0,0,.19-.8,1.39,1.39,0,0,0-.19-.8.6.6,0,0,0-.53-.28.61.61,0,0,0-.53.28,1.48,1.48,0,0,0-.18.8A1.51,1.51,0,0,0,53.48,40.21Z"/><path class="cls-6" d="M57.05,40.38a.9.9,0,0,1-1.44,0,1.66,1.66,0,0,1-.25-1,1.64,1.64,0,0,1,.25-1,.9.9,0,0,1,1.44,0,1.94,1.94,0,0,1,0,1.94Zm-1.25-.17a.61.61,0,0,0,.53.28.6.6,0,0,0,.53-.28,1.41,1.41,0,0,0,.19-.8,1.39,1.39,0,0,0-.19-.8.6.6,0,0,0-.53-.28.61.61,0,0,0-.53.28,1.48,1.48,0,0,0-.19.8A1.5,1.5,0,0,0,55.8,40.21Z"/></svg>