<svg id="Слой_1" data-name="Слой 1" xmlns="http://www.w3.org/2000/svg" viewBox="0 0 64 64"><defs><style>.cls-1,.cls-3{fill:#fff;}.cls-1,.cls-2{stroke:#fff;stroke-width:2.5px;}.cls-1,.cls-2,.cls-3,.cls-4{stroke-linecap:round;stroke-linejoin:round;}.cls-2,.cls-4{fill:#38cb2b;}.cls-3,.cls-4{stroke:#1d1d1b;stroke-width:2px;}</style></defs><path class="cls-1" d="M37.18,44H51.95a2,2,0,0,1,2,2v8a0,0,0,0,1,0,0H35.18a0,0,0,0,1,0,0V46A2,2,0,0,1,37.18,44Z"/><rect class="cls-1" x="39.35" y="32" width="10.43" height="9.68" rx="4.84"/><path class="cls-2" d="M16.18,20H30.95a2,2,0,0,1,2,2v8a0,0,0,0,1,0,0H14.18a0,0,0,0,1,0,0V22A2,2,0,0,1,16.18,20Z"/><rect class="cls-2" x="18.35" y="8" width="10.43" height="9.68" rx="4.84"/><path class="cls-3" d="M37.18,44H51.95a2,2,0,0,1,2,2v8a0,0,0,0,1,0,0H35.18a0,0,0,0,1,0,0V46A2,2,0,0,1,37.18,44Z"/><rect class="cls-3" x="39.35" y="32" width="10.43" height="9.68" rx="4.84"/><path class="cls-4" d="M16.18,20H30.95a2,2,0,0,1,2,2v8a0,0,0,0,1,0,0H14.18a0,0,0,0,1,0,0V22A2,2,0,0,1,16.18,20Z"/><rect class="cls-4" x="18.35" y="8" width="10.43" height="9.68" rx="4.84"/></svg>